Patient4_TMGait_0pt3_02_left_03_EMG.mot
version=1
nRows=16
nColumns=33
inDegrees=no
endheader
time	1LAddLong	2LGlutMax	3LGlutMed	4LIliopsoas	5LSemiMemb	6LBicFemLong	7LRecFem	8LVastMed	9LVastLat	10LGasMed	11LTibAnt	12lTibPost	13LPeroneusLong	14LSol	15LExtDigLong	16LFlexDigLong	17RAddLong	18RGlutMax	19RGlutMed	20RIliopsoas	21RSemiMemb	22RBicFemLong	23RRecFem	24RVastMed	25RVastLat	26RGasMed	27RTibAnt	28RTibPost	29RPeroneusLong	30RSol	31RExtDigLong	32RFlexDigLong
5.2	0.004883	-0.079498	0.015259	0.009613	0.032654	0.021973	0.015411	0.002289	-0.011597	-0.042725	-0.13214	0.009766	0.089264	0.065613	-0.052032	0.004272	-0.000153	-0.13062	-0.53619	0.075226	-0.045471	-0.2771	0.22949	-0.26154	0.063629	0.007629	-0.036926	0.007935	-0.40237	0.61432	0.00061	-0.011902
5.201	0.009766	-0.035248	-0.028534	0.021667	0.033264	0.026703	0.033875	-0.001373	-0.005646	-0.059052	0.15671	0.00824	0.078888	0.039368	-0.011139	0.012054	-0.019989	-0.13138	-0.4422	0.030212	-0.000916	-0.31693	0.23804	-0.22598	0.31281	-0.006256	0.000153	-0.013123	-0.5188	0.72586	-0.000916	-0.016479
5.202	0.002289	-0.027008	-0.027924	-0.010529	0.026093	0.034332	0.029297	-0.001068	0.00351	-0.028992	0.22232	0.011902	0.085144	0.001526	0.027313	-0.005951	-0.044098	-0.16144	0.26977	0.012512	0.0354	-0.19669	-0.035858	0.051117	0.31143	-0.007019	0.16815	-0.051575	-0.71411	0.33341	0.002594	-0.016022
5.203	-0.006561	-0.000153	0.029297	0.019836	0.028687	0.015259	0.037384	-0.007477	0.006409	0.005951	0.082703	0.007629	0.018158	0.11398	-0.086975	-0.012054	-0.01236	-0.13016	-0.053864	0.001831	0.019531	0.007324	-0.20905	0.16571	0.31113	-0.005493	0.072784	-0.037079	0.48691	-0.06897	-0.000305	-0.012512
5.204	-0.00351	0.031586	0.050812	0.014496	0.028687	0.003204	0.025635	-0.008392	0.01297	0.031586	-0.069275	0.009308	0.006409	0.075531	-0.62515	-0.027618	0.018158	-0.13825	-0.53329	0.033112	-0.058289	-0.088959	-0.084991	0.089417	0.19028	0.007172	-0.03479	-0.010376	1.2422	-0.36377	-0.00061	-0.007172
5.205	-0.003052	0.056763	0.033569	-0.00351	0.023041	-0.010681	0.006866	-0.00946	0.028534	0.027618	-0.11047	0.009766	-0.009308	0.002136	-0.56946	-0.024109	0.037689	-0.007935	0.028839	-0.024567	-0.081177	-0.4718	0.021667	-0.029755	0.029297	0.001831	0.11246	-0.011749	1.2527	-0.38605	0.00885	-0.011139
5.206	0.000305	0.048218	0.027771	0.005646	0.029449	-0.012512	-0.003357	-0.013885	0.025482	0.003967	0.002594	0.010986	-0.048676	0.02121	-0.1944	-0.017853	0.050812	-0.05188	0.92712	-0.059204	-0.083923	-0.242	0.039063	-0.032349	0.032349	-0.007782	0.15747	-0.021973	1.5633	-0.16266	0.005341	-0.02121
5.207	0.000916	0.064697	0.014191	-0.00946	0.023499	-0.021973	-0.03891	-0.008545	0.015106	0.008698	0.19486	-0.001068	-0.087738	0.023499	0.11444	-0.008545	0.044708	-0.052795	0.88913	-0.014343	-0.064392	0.15732	0.28931	0.053864	-0.26077	0.011749	0.14099	-0.023041	-0.4567	-0.32227	-0.00061	-0.018921
5.208	-0.00473	0.10742	0.013885	-0.006104	0.036163	-0.009918	-0.085907	-0.014038	0.008392	-0.008698	0.12558	0.014801	-0.078583	0.022278	0.075073	0.001831	0.063782	-0.049133	0.97015	-0.046234	-0.073853	-0.043182	0.4248	-0.11383	-0.42633	0.033875	-0.49225	-0.021973	-1.2758	-0.44235	0.000305	-0.006409
5.209	0.009918	0.09491	-0.007172	-0.007935	0.032349	-0.023346	-0.080414	-0.015717	0.006866	0.003357	0.000305	0.010071	-0.040131	-0.037384	0.059052	-0.002747	0.067139	-0.11215	0.20203	-0.013428	-0.014191	-0.14389	0.4393	-0.23605	-0.24323	0.014954	-0.54077	-0.022888	-0.1915	-0.19516	-0.005035	-0.014191
5.21	0.01358	0.12512	-0.000916	0.006409	0.037079	-0.016785	-0.084229	-0.023499	0.001678	0.017242	-0.048523	0.011902	-0.012817	-0.1004	0.027618	-0.011597	0.034027	-0.073395	0.001373	-0.093079	0.030975	0.06485	0.17502	-0.098572	-0.048828	-0.014954	-0.052948	-0.028687	-0.17242	-0.13657	-0.001831	-0.018616
5.211	0.003662	0.12833	0.010986	0.014343	0.037689	-0.012512	-0.063324	-0.019684	0.00061	0.014343	-0.027466	0.011749	0.008087	-0.11902	-0.026703	-0.009308	-0.003357	-0.1033	-0.078125	-0.10483	0.059509	0.36652	-0.13534	-0.16678	-0.056152	0.000305	0.089111	-0.017395	0.62454	-0.39764	0.000458	-0.016479
5.212	0.015564	0.12085	0.040131	0.010071	0.027924	-0.007172	-0.04776	-0.014954	-0.01709	0.018921	0.030975	0.014801	-0.022888	-0.14343	0.035706	-0.004425	-0.023346	-0.18845	0.088043	-0.11307	0.14435	0.69336	-0.24353	-0.24857	-0.069122	0.005188	-0.16342	-0.022888	0.78156	-0.33508	0.002594	-0.010834
5.213	0.006104	0.15182	0.005493	-0.00061	0.03952	0.018463	-0.046997	-0.012817	-0.009308	-0.005188	0.13825	0.009308	-0.002747	-0.12985	0.024109	0.010376	0.000916	-0.18402	0.42236	-0.068512	0.16937	0.56458	-0.11643	-0.054169	-0.18402	-0.005493	-0.22034	-0.026245	0.30441	0.059967	-0.002747	-0.013428
5.214	0.015411	0.16022	-0.007019	-0.026093	0.032501	0.007629	-0.030975	-0.008087	-0.014343	-0.011444	0.060577	-0.008087	0.033264	-0.039673	-0.015106	-0.003204	0.040283	-0.21088	0.51666	-0.031738	0.050201	0.13016	0.011444	-0.19104	-0.31738	-0.024109	-0.035858	-0.018921	0.1506	0.15976	0	-0.026093
5.215	0.015717	0.16586	0.003815	-0.009003	0.025482	0.016327	-0.016174	-0.011597	-0.018005	0.018158	0.030975	0.014343	0.035706	-0.032806	0.042877	-0.007477	0.069427	-0.19165	0.39581	0.058899	-0.033722	-0.022888	0.073547	-0.17807	-0.1062	-0.018921	-0.004272	-0.019073	0.18158	0.072174	0.002441	-0.023956
